<?xml version="1.0" standalone="no"?>
<!DOCTYPE svg PUBLIC "-//W3C//DTD SVG 20010904//EN"
 "http://www.w3.org/TR/2001/REC-SVG-20010904/DTD/svg10.dtd">
<svg version="1.0" xmlns="http://www.w3.org/2000/svg"
 width="260.000000pt" height="260.000000pt" viewBox="0 0 260.000000 260.000000"
 preserveAspectRatio="xMidYMid meet">
<metadata>
Created by potrace 1.11, written by Peter Selinger 2001-2013
</metadata>
<g transform="translate(0.000000,260.000000) scale(0.100000,-0.100000)"
fill="#000000" stroke="none">
<path d="M2158 2013 c-126 -33 -206 -127 -223 -267 -4 -30 -7 -103 -8 -161 0
-58 -4 -106 -9 -106 -4 -1 -39 -3 -78 -4 -38 -1 -74 -3 -78 -4 -5 0 -9 -32
-10 -71 l-2 -70 33 -1 c17 0 57 -1 89 -1 l56 -1 0 -346 c0 -190 1 -358 1 -373
l1 -27 88 2 87 2 2 359 c1 198 4 365 7 373 4 9 27 12 78 12 136 -2 124 -9 124
69 0 37 -4 69 -8 72 -4 3 -50 5 -103 5 l-97 0 4 145 c3 124 6 150 23 180 31
52 77 72 152 66 71 -6 70 -7 79 90 l6 64 -28 1 c-108 5 -140 3 -186 -8z"/>
<path d="M595 1486 c-73 -20 -127 -59 -169 -121 l-26 -38 -1 39 c-1 39 -5 94
-8 104 0 3 -38 5 -83 5 l-83 0 2 -45 c0 -25 2 -225 2 -446 l1 -401 90 0 90 0
1 261 c1 303 1 301 29 363 41 94 101 136 195 137 74 1 126 -27 156 -86 27 -53
27 -48 28 -385 l1 -291 90 1 90 1 0 257 c0 149 5 280 11 311 24 117 95 187
197 193 70 4 108 -11 149 -58 52 -59 57 -94 59 -397 1 -151 3 -283 3 -292 1
-15 13 -17 90 -16 l89 0 -1 307 c0 312 -5 368 -41 442 -25 54 -83 108 -146
138 -47 22 -68 26 -145 25 -126 -1 -197 -34 -277 -132 l-27 -33 -15 29 c-22
42 -73 88 -125 113 -53 25 -163 32 -226 15z"/>
</g>
</svg>
